<svg xmlns="http://www.w3.org/2000/svg" width="221.911" height="30.154" viewBox="0 0 221.911 30.154">
  <g id="Group_5" data-name="Group 5" transform="translate(602 -83)">
    <g id="Group_4" data-name="Group 4" transform="translate(-602 83)">
      <g id="Group_1" data-name="Group 1" transform="translate(54.703 0.883)">
        <path id="Path_1" data-name="Path 1" d="M637.185,54.148c-1.611-.992-4.709-1.9-9.471-2.766a19.776,19.776,0,0,1-5.265-1.495,3.753,3.753,0,0,1-2.182-3.52c0-3.239,2.674-4.814,8.174-4.814a12.481,12.481,0,0,1,6.1,1.175c1.588.885,2.46,2.449,2.666,4.785a.866.866,0,0,0,.863.8h1.514l-.009-.486c-.109-5.64-3.855-8.5-11.134-8.5-6.979,0-10.517,2.369-10.517,7.041a6.077,6.077,0,0,0,3.581,5.6,31.055,31.055,0,0,0,6.76,1.972c2.881.612,4.726,1.037,5.486,1.266a7.163,7.163,0,0,1,3.009,1.507,3.824,3.824,0,0,1,1.014,2.9,4.328,4.328,0,0,1-2.889,4.125,13.669,13.669,0,0,1-5.671,1.037c-6.147,0-9.336-1.995-9.75-6.1-.02-.2-.033-.721-.04-1.082a.872.872,0,0,0-.868-.851h-1.485l0,.482c0,.133.013,1.312.04,1.622a7.751,7.751,0,0,0,3.824,6.314A16.172,16.172,0,0,0,629.173,67a15.771,15.771,0,0,0,7.008-1.439c2.61-1.291,3.933-3.254,3.933-5.833A6.053,6.053,0,0,0,637.185,54.148Z" transform="translate(-617.069 -39.325)" fill="#1a1919"/>
        <path id="Path_2" data-name="Path 2" d="M943.54,42.148h-3.779l-18.98,14.461V42.148h-2.342V69.283h1.578a.765.765,0,0,0,.764-.765V59.462l5.361-4.2L940.407,69a.988.988,0,0,0,.688.278h2.864L928.026,53.906Z" transform="translate(-889.542 -41.877)" fill="#1a1919"/>
        <path id="Path_3" data-name="Path 3" d="M1206.9,42.538l-10.439,11.5-10.4-11.5a1.2,1.2,0,0,0-.883-.391h-2.528l12.68,14.1V68.407a.876.876,0,0,0,.875.876h1.467V56.245l12.6-14.1h-2.485A1.193,1.193,0,0,0,1206.9,42.538Z" transform="translate(-1128.413 -41.877)" fill="#1a1919"/>
        <path id="Path_4" data-name="Path 4" d="M1519.54,55.017c2.578-1.209,3.884-3.1,3.884-5.635a6.394,6.394,0,0,0-2.8-5.606,10.757,10.757,0,0,0-6.137-1.628h-12.031a1.189,1.189,0,0,0-1.188,1.188V69.283h12.717a13.373,13.373,0,0,0,6.846-1.573,6.613,6.613,0,0,0,3.439-6.046A6.471,6.471,0,0,0,1519.54,55.017Zm-.552-2.1a8.656,8.656,0,0,1-4.614,1.126h-10.761V44.376h10.8a8.7,8.7,0,0,1,4.582,1.09,4.366,4.366,0,0,1-.006,7.45Zm-4.538,14.139h-10.837V56.269H1514.3a10.271,10.271,0,0,1,5.249,1.174,4.892,4.892,0,0,1,.07,8.4A10.094,10.094,0,0,1,1514.451,67.055Z" transform="translate(-1416.489 -41.877)" fill="#1a1919"/>
        <path id="Path_5" data-name="Path 5" d="M1799.274,43.362c-4.328,0-7.783,1.187-10.27,3.528s-3.761,5.687-3.761,9.923c0,4.283,1.255,7.7,3.733,10.146,2.545,2.519,5.734,3.692,10.036,3.692s7.767-1.234,10.293-3.667a13.73,13.73,0,0,0,4.076-10.171c0-4.237-1.279-7.576-3.8-9.925S1803.6,43.362,1799.274,43.362Zm11.764,13.451a11.556,11.556,0,0,1-3.365,8.525c-2.061,2.048-4.975,3.086-8.662,3.086a10.976,10.976,0,0,1-8.321-3.122,11.558,11.558,0,0,1-3.1-8.488c0-3.554,1.035-6.342,3.076-8.286s4.945-2.938,8.612-2.938,6.56.957,8.6,2.845C1809.973,50.391,1811.038,53.21,1811.038,56.813Z" transform="translate(-1673.233 -42.975)" fill="#1a1919"/>
        <path id="Path_6" data-name="Path 6" d="M2099.887,55.336l11.183-13.188h-2.662a.862.862,0,0,0-.66.307L2098.3,53.587l-9.369-11.132a.867.867,0,0,0-.662-.308h-2.7l11.175,13.179-12.027,13.956h2.628a.874.874,0,0,0,.667-.307l10.274-11.863,9.652,11.856a.875.875,0,0,0,.673.315h2.589Z" transform="translate(-1943.996 -41.877)" fill="#1a1919"/>
      </g>
      <g id="Group_2" data-name="Group 2" transform="translate(0 0)">
        <path id="Path_7" data-name="Path 7" d="M169.748,39.47a5.4,5.4,0,0,1,.833-2.933,5.693,5.693,0,0,1,5.465-2.385c.06.008.119.017.179.027a5.555,5.555,0,0,1,.7.161h0a5.539,5.539,0,0,1,.666.258c.054.024.107.049.16.075a5.675,5.675,0,0,1,.621.35h0a5.635,5.635,0,0,1,.564.434l.13.115a5.7,5.7,0,0,1,.5.513h0a5.572,5.572,0,0,1,.422.581c.031.048.061.1.091.146a5.342,5.342,0,0,1,.788,2.844,6.12,6.12,0,0,1-.153,1.353,12.005,12.005,0,0,1,3.925-1.725,10.067,10.067,0,0,0-.247-1.825h.008c-.008-.031-.018-.061-.025-.092s-.011-.036-.015-.054q-.1-.408-.232-.8c-.023-.067-.049-.132-.073-.2-.076-.209-.156-.414-.245-.615-.036-.082-.075-.162-.113-.243-.086-.181-.177-.358-.274-.532-.047-.084-.094-.167-.144-.25-.1-.165-.2-.326-.311-.484-.054-.08-.107-.159-.164-.237-.115-.158-.237-.31-.361-.46-.056-.068-.11-.138-.169-.2-.148-.169-.3-.33-.463-.487-.04-.039-.077-.081-.117-.12q-.3-.29-.632-.551c-.048-.038-.1-.071-.147-.108-.171-.131-.345-.258-.525-.377-.084-.055-.17-.1-.256-.157-.15-.092-.3-.183-.457-.267-.1-.053-.2-.1-.3-.15-.15-.074-.3-.145-.454-.211-.1-.045-.211-.087-.318-.129-.154-.059-.31-.114-.468-.166-.109-.035-.217-.07-.328-.1-.164-.047-.33-.086-.5-.124-.107-.024-.213-.05-.321-.07-.186-.035-.373-.06-.562-.083-.092-.011-.183-.027-.275-.036-.282-.027-.567-.042-.855-.042a8.916,8.916,0,0,0-8.987,6.423,9.856,9.856,0,0,0-.36,2.557,11.358,11.358,0,0,1,3.935,1.747A6.421,6.421,0,0,1,169.748,39.47Z" transform="translate(-154.516 -30.114)" fill="#069ddb"/>
        <path id="Path_8" data-name="Path 8" d="M84.116,150.872a8.538,8.538,0,0,0-1.32-.7c-.077-.032-.157-.058-.235-.088a9.719,9.719,0,0,0-3.5-.632,10.728,10.728,0,0,0-1.111.063c-.1.011-.194.025-.292.038q-.416.055-.817.141c-.082.017-.164.034-.245.053a11.026,11.026,0,0,0-2.024.7h0c-2.8,1.279-5.03,3.594-7.2,5.768l-2.53,2.594c-2.4,2.465-5.31,5.565-8.913,5.565a5.2,5.2,0,0,1-4.49-2.388,5.479,5.479,0,0,1-.653-1.467,6.281,6.281,0,0,1-.231-1.71,5.548,5.548,0,0,1,.84-2.92c.073-.118.151-.233.233-.346s.161-.218.249-.321a5.51,5.51,0,0,1,4.242-1.978c2.829,0,5.018,1.958,7,3.9l.9-.927c.552-.552,1.108-1.113,1.676-1.664-2.642-2.581-5.675-5.1-9.519-5.1q-.522,0-1.025.05a9.768,9.768,0,0,0-2.823.71,9.351,9.351,0,0,0-5.76,8.6,8.909,8.909,0,0,0,9.1,9.353h.005c.355,0,.7-.021,1.039-.054.088-.009.173-.024.26-.034.259-.032.515-.07.765-.12.077-.016.153-.033.229-.051q.4-.089.791-.208l.139-.043c3.4-1.088,5.975-3.76,8.468-6.255l2.527-2.589c2.4-2.465,5.311-5.564,8.914-5.564A5.229,5.229,0,0,1,83,155.211a5.076,5.076,0,0,1,.3.424,5.865,5.865,0,0,1,.884,3.179,5.573,5.573,0,0,1-5.563,5.565c-2.83,0-5.019-1.958-7-3.9l-.9.923c-.552.553-1.109,1.114-1.677,1.666,2.642,2.582,5.674,5.1,9.518,5.1a9.43,9.43,0,0,0,9.609-9.353A9.139,9.139,0,0,0,84.116,150.872Z" transform="translate(-46.566 -138.013)" fill="#069ddb"/>
      </g>
    </g>
  </g>
</svg>
